<svg version="1.2" baseProfile="tiny-ps" xmlns="http://www.w3.org/2000/svg" viewBox="0 0 951 702" width="500" height="369">
	<title>black-friday-seeklogo</title>
	<defs>
		<linearGradient id="grd1" gradientUnits="userSpaceOnUse"  x1="70.17" y1="355.432" x2="896.6" y2="355.432">
			<stop offset="0" stop-color="#020407"  />
			<stop offset="1" stop-color="#111416"  />
		</linearGradient>
		<linearGradient id="grd2" gradientUnits="userSpaceOnUse"  x1="9.931" y1="9.955" x2="941.551" y2="9.955">
			<stop offset="0" stop-color="#f92d18"  />
			<stop offset="1" stop-color="#f22c18"  />
		</linearGradient>
	</defs>
	<style>
		tspan { white-space:pre }
		.shp0 { fill: url(#grd1) } 
		.shp1 { fill: #ffffff } 
		.shp2 { fill: url(#grd2) } 
		.shp3 { fill: #700000 } 
	</style>
	<g id="Layer 1">
		<g id="&lt;Group&gt;">
			<path id="&lt;Path&gt;" class="shp0" d="M866.64 699.37C611.14 685.37 355.63 671.37 100.13 657.37C87.62 656.67 77.23 648.08 76.9 638.18C74.56 565.29 72.21 492.41 69.86 419.52C69.54 409.62 79.62 401.02 92.38 400.3C353.05 386.02 613.72 371.74 874.39 357.46C887.15 356.74 897.23 367.05 896.91 380.48C894.56 479.09 892.21 577.71 889.87 676.32C889.54 689.75 879.15 700.07 866.64 699.37Z" />
			<g id="&lt;Group&gt;">
				<path id="&lt;Compound Path&gt;" class="shp1" d="M226.65 552.49C214.13 552.39 201.62 552.28 189.1 552.17C189.85 569.59 190.61 587.01 191.36 604.43C176.74 603.92 162.13 603.41 147.51 602.9C145.19 556.93 142.87 510.96 140.54 464.99C171.11 463.93 201.67 462.86 232.24 461.79C230.81 474.17 229.4 486.51 227.99 498.82C214.27 499.05 200.55 499.29 186.83 499.53C187.1 505.86 187.38 512.19 187.65 518.52C200.22 518.42 212.8 518.32 225.37 518.22C225.8 529.64 226.22 541.07 226.65 552.49Z" />
				<path id="&lt;Compound Path&gt;" fill-rule="evenodd" class="shp1" d="M345.28 559.2C353.58 576.17 361.83 593.32 370.02 610.67C353.94 610.11 337.87 609.55 321.79 608.98C315.48 593.89 309.14 578.92 302.75 564.08C299.57 564.03 296.38 563.99 293.2 563.94C293.59 578.64 293.99 593.33 294.39 608.03C279.77 607.52 265.16 607.01 250.55 606.5C248.91 558.11 247.28 509.72 245.65 461.33C269.14 460.51 292.62 459.69 316.1 458.87C348.18 457.66 364.51 475.03 365.08 510.97C365.48 535.53 358.86 551.67 345.28 559.2ZM301.61 497.54C298.21 497.6 294.81 497.66 291.41 497.72C291.68 507.6 291.94 517.49 292.21 527.37C295.6 527.36 298.98 527.35 302.37 527.34C307.78 527.32 311.68 526.71 314.05 525.5C316.42 524.29 317.56 521.55 317.46 517.28C317.39 513.95 317.31 510.61 317.23 507.28C317.13 503.01 315.86 500.3 313.42 499.14C310.99 497.98 307.04 497.45 301.61 497.54Z" />
				<path id="&lt;Compound Path&gt;" class="shp1" d="M385.36 611.2C384.64 559.64 383.92 508.08 383.2 456.53C398.11 456.01 413.01 455.48 427.92 454.96C428.35 507.55 428.78 560.14 429.21 612.73C414.59 612.22 399.98 611.71 385.36 611.2Z" />
				<path id="&lt;Compound Path&gt;" fill-rule="evenodd" class="shp1" d="M512.51 615.64C492.05 614.93 471.59 614.21 451.13 613.5C450.85 560.39 450.57 507.29 450.29 454.18C471.16 453.46 492.03 452.73 512.91 452C525.46 451.56 535.95 452.69 544.38 455.43C552.8 458.17 559.53 462.81 564.56 469.37C569.58 475.92 573.12 484.49 575.18 495.05C577.23 505.62 578.19 518.47 578.03 533.57C577.88 548.68 576.67 561.57 574.42 572.21C572.18 582.85 568.52 591.46 563.46 598.01C558.39 604.57 551.71 609.25 543.41 612.07C535.1 614.9 524.81 616.07 512.51 615.64ZM513.55 493.88C507.37 493.98 501.18 494.09 495 494.2C495 520.62 494.99 547.03 494.98 573.45C501.1 573.55 507.22 573.66 513.34 573.76C519.46 573.86 523.84 573.1 526.48 571.46C529.12 569.82 530.46 565.99 530.49 559.98C530.57 542.53 530.65 525.09 530.73 507.65C530.75 501.64 529.44 497.81 526.79 496.17C524.14 494.53 519.73 493.77 513.55 493.88Z" />
				<path id="&lt;Compound Path&gt;" fill-rule="evenodd" class="shp1" d="M625.22 619.57C609.81 619.04 594.41 618.5 579 617.96C591.39 562.26 604.03 505.73 616.9 448.37C639.95 447.56 663 446.76 686.04 445.96C696.82 504.07 707.36 563.02 717.66 622.8C702.25 622.26 686.84 621.72 671.44 621.19C669.92 611.88 668.4 602.59 666.88 593.32C654.78 593.04 642.69 592.75 630.59 592.47C628.8 601.52 627 610.56 625.22 619.57ZM649.3 500.3C645.99 516.5 642.69 532.64 639.4 548.73C646.16 548.76 652.91 548.8 659.67 548.84C657.03 532.59 654.38 516.4 651.71 500.27C650.91 500.28 650.11 500.29 649.3 500.3Z" />
				<path id="&lt;Compound Path&gt;" class="shp1" d="M768.98 443.06C772.44 464.2 775.87 485.43 779.27 506.76C779.82 506.76 780.38 506.75 780.93 506.74C785.74 485.31 790.58 463.78 795.44 442.14C811.91 441.56 828.37 440.99 844.83 440.41C829.72 486.16 814.8 531.23 800.08 575.63C799.52 592.29 798.96 608.95 798.4 625.62C783.78 625.11 769.17 624.6 754.55 624.09C755.03 607.7 755.51 591.32 755.99 574.94C744.05 530.88 731.92 487.49 719.59 444.79C736.05 444.21 752.51 443.64 768.98 443.06Z" />
			</g>
		</g>
		<path id="&lt;Path&gt;" class="shp2" d="M919.04 376.4C623.51 400.85 327.98 425.29 32.44 449.73C24.83 450.37 18.52 443.91 18.34 435.32C15.48 299.01 12.62 162.7 9.76 26.39C9.57 17.79 15.72 11.34 23.49 11.99C324.99 36.93 626.49 61.87 927.99 86.8C935.76 87.45 941.91 92.52 941.73 98.12C938.87 187.12 936.01 276.11 933.14 365.11C932.97 370.71 926.65 375.77 919.04 376.4Z" />
		<g id="&lt;Group&gt;" style="opacity: 0.78">
			<path id="&lt;Compound Path&gt;" fill-rule="evenodd" class="shp3" d="M212.07 358.16C179.81 359.91 147.55 361.67 115.29 363.42C112.82 282.34 110.35 201.26 107.88 120.19C137.56 121.8 167.23 123.42 196.91 125.03C213.39 125.93 225.24 130.91 232.44 139.82C239.64 148.74 243.4 161.27 243.75 177.53C244.1 194 242.16 206.6 237.96 215.41C233.76 224.23 227.92 230.07 220.42 232.92C220.44 233.64 220.46 234.36 220.47 235.08C242.53 240.36 253.89 260.37 254.61 295.34C254.98 313.56 251.71 328.3 244.83 339.73C237.95 351.14 227.03 357.34 212.07 358.16ZM181.52 175.61C175.75 175.43 169.98 175.25 164.2 175.07C164.52 186.88 164.84 198.7 165.15 210.51C170.76 210.59 176.37 210.68 181.97 210.76C188.94 210.86 192.28 205.08 191.99 193.42C191.7 181.76 188.21 175.82 181.52 175.61ZM187.91 265.66C180.82 265.73 173.73 265.81 166.64 265.88C166.99 278.85 167.34 291.83 167.69 304.8C174.6 304.6 181.52 304.41 188.44 304.21C196.11 303.99 199.78 297.44 199.47 284.56C199.15 271.89 195.3 265.59 187.91 265.66Z" />
			<path id="&lt;Compound Path&gt;" class="shp3" d="M393.72 348.3C357.8 350.25 321.87 352.2 285.94 354.15C284.57 279.32 283.19 204.48 281.82 129.65C300.13 130.64 318.44 131.64 336.75 132.64C337.51 186.85 338.28 241.06 339.04 295.27C357.09 294.8 375.15 294.33 393.2 293.86C393.37 312 393.55 330.15 393.72 348.3Z" />
			<path id="&lt;Compound Path&gt;" fill-rule="evenodd" class="shp3" d="M459.96 344.71C441.02 345.73 422.09 346.76 403.15 347.79C417.05 276.45 431.23 206.71 445.68 138.56C473.99 140.1 502.29 141.64 530.6 143.18C545.2 209.89 559.53 275.01 573.58 338.54C554.64 339.57 535.71 340.59 516.77 341.62C514.69 331.2 512.61 320.75 510.51 310.25C495.65 310.8 480.78 311.34 465.92 311.89C463.93 322.79 461.94 333.73 459.96 344.71ZM486.73 202.87C483.04 221.69 479.36 240.62 475.71 259.66C484.01 259.59 492.31 259.51 500.61 259.44C496.99 240.72 493.35 221.88 489.69 202.94C488.7 202.92 487.72 202.9 486.73 202.87Z" />
			<path id="&lt;Compound Path&gt;" class="shp3" d="M708.1 280.18C709.09 296.16 710.08 312.1 711.07 328C699.42 333.5 685.16 336.81 668.25 337.78C652.24 338.69 639.03 337.53 628.61 334.18C618.18 330.84 609.93 325.26 603.87 317.44C597.8 309.61 593.58 299.42 591.22 286.91C588.85 274.41 587.73 259.52 587.88 242.33C588.03 225.65 589.33 211.06 591.8 198.64C594.26 186.21 598.58 175.92 604.76 167.84C610.93 159.75 619.28 153.92 629.78 150.32C640.28 146.72 653.56 145.43 669.59 146.35C673.1 146.55 677.03 146.98 681.37 147.62C685.72 148.27 689.98 149.04 694.16 149.91C698.35 150.79 702.3 151.76 706.02 152.84C709.73 153.92 712.73 155.07 714.99 156.29C711.91 170.7 708.85 185.17 705.79 199.72C693.7 196.7 682.87 195 673.3 194.73C663.43 194.44 656.58 195.23 652.75 197.09C648.92 198.96 646.97 202.86 646.88 208.79C646.49 234.62 646.1 260.45 645.71 286.29C649.16 287.02 652.64 287.55 656.17 287.86C659.7 288.18 663.34 288.28 667.11 288.18C682.14 287.77 695.8 285.06 708.1 280.18Z" />
			<path id="&lt;Compound Path&gt;" class="shp3" d="M798.57 253.2C798.2 253.21 797.82 253.21 797.44 253.21C796.62 277.65 795.8 302.08 794.97 326.52C777.01 327.5 759.04 328.47 741.08 329.45C742.63 271.26 744.18 213.07 745.73 154.88C764.04 155.87 782.34 156.87 800.65 157.87C799.88 180.8 799.11 203.74 798.34 226.68C798.71 226.68 799.09 226.68 799.47 226.69C799.71 223.99 800.1 221.56 800.63 219.4C801.15 217.24 801.82 215.34 802.64 213.71C812.15 195.33 821.71 177.27 831.32 159.53C851.16 160.61 870.99 161.69 890.83 162.77C875.89 188.02 861.08 214 846.39 240.7C859.33 268.46 872.13 295.44 884.79 321.65C865.33 322.7 845.87 323.76 826.41 324.81C817.95 305.56 809.43 285.95 800.85 265.97C800.15 264.34 799.62 262.48 799.24 260.39C798.85 258.3 798.63 255.9 798.57 253.2Z" />
		</g>
		<g id="&lt;Group&gt;">
			<path id="&lt;Compound Path&gt;" fill-rule="evenodd" class="shp1" d="M191.99 341.87C159.46 343.62 126.93 345.37 94.4 347.12C91.9 266.04 89.41 184.97 86.92 103.89C116.85 105.51 146.77 107.12 176.7 108.73C193.32 109.64 205.27 114.61 212.53 123.52C219.79 132.45 223.59 144.98 223.94 161.24C224.29 177.7 222.34 190.3 218.11 199.12C213.87 207.93 207.98 213.78 200.42 216.62C200.43 217.34 200.45 218.06 200.47 218.78C222.71 224.06 234.17 244.07 234.89 279.04C235.27 297.26 231.97 312 225.03 323.43C218.09 334.85 207.08 341.05 191.99 341.87ZM161.19 159.31C155.36 159.13 149.54 158.95 143.72 158.77C144.04 170.58 144.36 182.4 144.68 194.21C150.33 194.29 155.99 194.38 161.64 194.46C168.66 194.56 172.03 188.78 171.74 177.12C171.45 165.46 167.93 159.52 161.19 159.31ZM167.63 249.36C160.48 249.44 153.33 249.51 146.18 249.58C146.53 262.56 146.88 275.53 147.23 288.5C154.21 288.31 161.18 288.11 168.16 287.91C175.89 287.69 179.6 281.14 179.28 268.26C178.97 255.59 175.08 249.29 167.63 249.36Z" />
			<path id="&lt;Compound Path&gt;" class="shp1" d="M375.18 332.01C338.95 333.96 302.72 335.91 266.49 337.86C265.1 263.02 263.72 188.19 262.33 113.35C280.79 114.35 299.26 115.34 317.72 116.34C318.49 170.55 319.27 224.76 320.04 278.97C338.24 278.5 356.45 278.03 374.65 277.56C374.83 295.71 375 313.86 375.18 332.01Z" />
			<path id="&lt;Compound Path&gt;" fill-rule="evenodd" class="shp1" d="M441.98 328.41C422.88 329.44 403.79 330.47 384.69 331.49C398.7 260.16 413 190.41 427.58 122.26C456.12 123.8 484.67 125.34 513.21 126.88C527.94 193.59 542.39 258.71 556.56 322.24C537.46 323.27 518.36 324.3 499.27 325.33C497.17 314.91 495.07 304.45 492.96 293.95C477.97 294.5 462.98 295.05 447.99 295.59C445.98 306.5 443.97 317.44 441.98 328.41ZM468.97 186.58C465.25 205.39 461.55 224.32 457.86 243.36C466.23 243.29 474.6 243.22 482.97 243.14C479.32 224.42 475.65 205.59 471.96 186.64C470.96 186.62 469.97 186.6 468.97 186.58Z" />
			<path id="&lt;Compound Path&gt;" class="shp1" d="M692.21 263.89C693.22 279.86 694.21 295.8 695.21 311.7C683.46 317.2 669.08 320.51 652.03 321.48C635.89 322.39 622.56 321.23 612.05 317.89C601.53 314.55 593.22 308.97 587.1 301.14C580.99 293.31 576.73 283.12 574.34 270.61C571.96 258.11 570.83 243.23 570.98 226.03C571.13 209.35 572.44 194.76 574.93 182.34C577.41 169.91 581.77 159.63 588 151.54C594.23 143.45 602.64 137.62 613.24 134.02C623.83 130.42 637.22 129.13 653.38 130.05C656.92 130.25 660.88 130.68 665.26 131.33C669.64 131.98 673.94 132.74 678.16 133.61C682.38 134.49 686.36 135.47 690.11 136.54C693.86 137.62 696.88 138.77 699.16 140C696.06 154.4 692.97 168.87 689.89 183.42C677.7 180.4 666.77 178.71 657.12 178.43C647.17 178.15 640.26 178.93 636.4 180.8C632.54 182.66 630.57 186.56 630.48 192.49C630.08 218.32 629.69 244.16 629.3 269.99C632.77 270.73 636.29 271.25 639.85 271.56C643.4 271.88 647.08 271.98 650.88 271.88C666.04 271.47 679.81 268.76 692.21 263.89Z" />
			<path id="&lt;Compound Path&gt;" class="shp1" d="M783.45 236.91C783.07 236.91 782.69 236.91 782.31 236.91C781.48 261.35 780.65 285.79 779.82 310.22C761.71 311.2 743.59 312.17 725.48 313.15C727.04 254.96 728.6 196.77 730.16 138.58C748.62 139.58 767.09 140.57 785.55 141.57C784.77 164.51 783.99 187.44 783.21 210.38C783.6 210.38 783.98 210.39 784.36 210.39C784.6 207.7 784.99 205.27 785.53 203.1C786.06 200.94 786.73 199.04 787.56 197.41C797.14 179.03 806.78 160.98 816.48 143.24C836.48 144.31 856.49 145.39 876.49 146.47C861.42 171.72 846.48 197.7 831.67 224.4C844.72 252.16 857.63 279.14 870.4 305.35C850.77 306.4 831.15 307.46 811.52 308.52C803 289.27 794.41 269.65 785.75 249.68C785.05 248.04 784.5 246.18 784.12 244.09C783.74 242 783.51 239.6 783.45 236.91Z" />
		</g>
	</g>
</svg>